<svg width="50" height="38" viewBox="0 0 50 38" fill="none" xmlns="http://www.w3.org/2000/svg">
<path d="M15.1006 10.2805C15.0838 10.2805 15.0587 10.2805 15.042 10.2805C15.0168 10.2805 14.9834 10.2805 14.9582 10.2805C13.0578 10.2219 11.6345 8.74009 11.6345 6.91497C11.6345 5.05636 13.1499 3.54102 15.0085 3.54102C16.8671 3.54102 18.3824 5.05636 18.3824 6.91497C18.3741 8.74846 16.9424 10.2219 15.1257 10.2805C15.1089 10.2805 15.1089 10.2805 15.1006 10.2805ZM15.0001 4.78846C13.828 4.78846 12.882 5.74288 12.882 6.9066C12.882 8.05357 13.7778 8.98288 14.9164 9.02474C14.9415 9.01636 15.0252 9.01636 15.1089 9.02474C16.2308 8.96613 17.1099 8.0452 17.1182 6.9066C17.1182 5.74288 16.1722 4.78846 15.0001 4.78846Z" fill="#292D32"/>
<path d="M15 18.0006C12.7479 18.0006 10.5963 17.1633 8.93025 15.6396C8.77955 15.5057 8.71257 15.3047 8.72932 15.1122C8.83816 14.1159 9.45769 13.1866 10.4875 12.5001C12.9823 10.8424 17.0261 10.8424 19.5126 12.5001C20.5423 13.195 21.1619 14.1159 21.2707 15.1122C21.2958 15.3131 21.2205 15.5057 21.0698 15.6396C19.4037 17.1633 17.2521 18.0006 15 18.0006ZM10.0437 14.9447C11.4335 16.1085 13.1833 16.7447 15 16.7447C16.8168 16.7447 18.5665 16.1085 19.9563 14.9447C19.8056 14.434 19.4037 13.9401 18.8093 13.5382C16.7498 12.1652 13.2586 12.1652 11.1823 13.5382C10.5879 13.9401 10.1944 14.434 10.0437 14.9447Z" fill="#292D32"/>
<path d="M15 18C10.0353 18 6 13.9647 6 9C6 4.03535 10.0353 0 15 0C19.9647 0 24 4.03535 24 9C24 13.9647 19.9647 18 15 18ZM15 1.25581C10.7302 1.25581 7.25581 4.73023 7.25581 9C7.25581 13.2698 10.7302 16.7442 15 16.7442C19.2698 16.7442 22.7442 13.2698 22.7442 9C22.7442 4.73023 19.2698 1.25581 15 1.25581Z" fill="#292D32"/>
</svg>
