<svg xmlns="http://www.w3.org/2000/svg" xmlns:xlink="http://www.w3.org/1999/xlink" width="105px" height="80px" viewBox="3 -5 105 80" version="1.1">
<g id="surface1">
<path style=" stroke:none;fill-rule:nonzero;fill:rgb(16.078431%,17.647059%,19.607843%);fill-opacity:1;" d="M 31.839844 21.644531 C 31.808594 21.644531 31.757812 21.644531 31.71875 21.644531 C 31.667969 21.644531 31.597656 21.644531 31.546875 21.644531 C 27.578125 21.519531 24.609375 18.402344 24.609375 14.558594 C 24.609375 10.644531 27.769531 7.457031 31.648438 7.457031 C 35.527344 7.457031 38.691406 10.644531 38.691406 14.558594 C 38.675781 18.417969 35.6875 21.519531 31.894531 21.644531 C 31.859375 21.644531 31.859375 21.644531 31.839844 21.644531 Z M 31.632812 10.082031 C 29.1875 10.082031 27.214844 12.089844 27.214844 14.539062 C 27.214844 16.957031 29.082031 18.910156 31.457031 19 C 31.511719 18.980469 31.6875 18.980469 31.859375 19 C 34.203125 18.875 36.035156 16.9375 36.050781 14.539062 C 36.050781 12.089844 34.078125 10.082031 31.632812 10.082031 Z M 31.632812 10.082031 "/>
<path style=" stroke:none;fill-rule:nonzero;fill:rgb(16.078431%,17.647059%,19.607843%);fill-opacity:1;" d="M 31.632812 37.894531 C 26.933594 37.894531 22.445312 36.132812 18.964844 32.925781 C 18.652344 32.644531 18.515625 32.222656 18.546875 31.816406 C 18.773438 29.71875 20.066406 27.761719 22.214844 26.316406 C 27.421875 22.824219 35.859375 22.824219 41.050781 26.316406 C 43.199219 27.777344 44.492188 29.71875 44.71875 31.816406 C 44.769531 32.238281 44.613281 32.644531 44.300781 32.925781 C 40.820312 36.132812 36.332031 37.894531 31.632812 37.894531 Z M 21.292969 31.464844 C 24.191406 33.910156 27.839844 35.253906 31.632812 35.253906 C 35.425781 35.253906 39.074219 33.910156 41.976562 31.464844 C 41.660156 30.386719 40.820312 29.347656 39.582031 28.503906 C 35.285156 25.613281 28 25.613281 23.667969 28.503906 C 22.425781 29.347656 21.605469 30.386719 21.292969 31.464844 Z M 21.292969 31.464844 "/>
<path style=" stroke:none;fill-rule:nonzero;fill:rgb(16.078431%,17.647059%,19.607843%);fill-opacity:1;" d="M 31.632812 37.894531 C 21.273438 37.894531 12.851562 29.398438 12.851562 18.949219 C 12.851562 8.496094 21.273438 0 31.632812 0 C 41.992188 0 50.414062 8.496094 50.414062 18.949219 C 50.414062 29.398438 41.992188 37.894531 31.632812 37.894531 Z M 31.632812 2.644531 C 22.722656 2.644531 15.472656 9.957031 15.472656 18.949219 C 15.472656 27.9375 22.722656 35.25 31.632812 35.25 C 40.542969 35.25 47.792969 27.9375 47.792969 18.949219 C 47.792969 9.957031 40.542969 2.644531 31.632812 2.644531 Z M 31.632812 2.644531 "/>
</g>
</svg>
