<svg width="44" height="44" viewBox="0 0 44 44" fill="none" xmlns="http://www.w3.org/2000/svg">
<path d="M18.689 8.55257V8.34426C18.6446 6.58081 17.9044 4.90653 16.6299 3.68693C15.3554 2.46733 13.6502 1.80146 11.8865 1.83468C10.573 1.82396 9.28435 2.19305 8.17567 2.89752C7.06699 3.60199 6.18551 4.61183 5.6373 5.80553C4.09375 5.97771 2.66709 6.71047 1.62797 7.86478C0.588849 9.01908 0.0095609 10.5146 0 12.0677C0.00170684 12.8907 0.165591 13.7052 0.482283 14.4647C0.798975 15.2242 1.26226 15.9139 1.84566 16.4943C2.42906 17.0747 3.12113 17.5344 3.88231 17.8471C4.64348 18.1599 5.45883 18.3195 6.28175 18.3169H8.72284V17.015H6.28175C5.02353 16.9469 3.83792 16.4044 2.96387 15.4968C2.08982 14.5891 1.59234 13.3839 1.5717 12.124C1.55106 10.8642 2.0088 9.64329 2.85264 8.70753C3.69649 7.77176 4.8637 7.19068 6.11901 7.08141H6.55515L6.70487 6.6713C7.1086 5.62269 7.8245 4.7233 8.75583 4.09465C9.68716 3.466 10.789 3.13841 11.9125 3.15613C13.331 3.1228 14.7051 3.65148 15.7355 4.62696C16.7658 5.60243 17.3689 6.94562 17.4131 8.36379C17.4221 8.53727 17.4221 8.71109 17.4131 8.88456L17.3611 9.35325L17.7842 9.54854C18.6025 9.91722 19.2689 10.5565 19.6713 11.3589C20.0736 12.1612 20.1873 13.0777 19.9932 13.954C19.7992 14.8304 19.3092 15.6132 18.6057 16.1706C17.9023 16.7281 17.0283 17.0263 16.1307 17.015H12.6286V18.3169H16.1307C17.2885 18.3252 18.4159 17.9475 19.335 17.2435C20.2541 16.5394 20.9123 15.5492 21.2057 14.4293C21.4992 13.3093 21.411 12.1235 20.9552 11.0593C20.4995 9.99504 19.7021 9.11301 18.689 8.55257Z" fill="#363A4A"/>
<path d="M13.4618 14.3137C13.5917 14.3158 13.7192 14.279 13.8279 14.208C13.9367 14.137 14.0217 14.0352 14.0721 13.9155C14.1225 13.7958 14.136 13.6637 14.1107 13.5364C14.0855 13.409 14.0227 13.292 13.9305 13.2006L10.6757 9.9458L7.42093 13.2006C7.31429 13.3251 7.25856 13.4853 7.26489 13.6491C7.27122 13.813 7.33913 13.9684 7.45507 14.0843C7.571 14.2002 7.72641 14.2682 7.89024 14.2745C8.05407 14.2808 8.21425 14.2251 8.33878 14.1184L10.0248 12.4585V20.4327C10.0248 20.6054 10.0933 20.771 10.2154 20.893C10.3375 21.0151 10.5031 21.0837 10.6757 21.0837C10.8484 21.0837 11.0139 21.0151 11.136 20.893C11.2581 20.771 11.3267 20.6054 11.3267 20.4327V12.4585L12.9996 14.1315C13.1235 14.2509 13.2897 14.3165 13.4618 14.3137Z" fill="#363A4A"/>
</svg>
