<svg xmlns="http://www.w3.org/2000/svg" xmlns:xlink="http://www.w3.org/1999/xlink" width="100px" height="100px" viewBox="0 0 100 100" version="1.1">
<g id="surface1">
<path style=" stroke:none;fill-rule:nonzero;fill:rgb(21.176471%,22.745098%,29.019608%);fill-opacity:1;" d="M 34.609375 15.835938 L 34.609375 15.453125 C 34.527344 12.1875 33.15625 9.085938 30.796875 6.824219 C 28.4375 4.570312 25.277344 3.335938 22.011719 3.398438 C 19.582031 3.378906 17.195312 4.0625 15.140625 5.363281 C 13.085938 6.667969 11.457031 8.542969 10.441406 10.753906 C 7.582031 11.070312 4.9375 12.429688 3.015625 14.5625 C 1.089844 16.703125 0.015625 19.472656 0 22.347656 C 0.00390625 23.871094 0.304688 25.378906 0.890625 26.785156 C 1.480469 28.191406 2.335938 29.46875 3.417969 30.542969 C 4.5 31.621094 5.78125 32.472656 7.191406 33.050781 C 8.601562 33.628906 10.105469 33.925781 11.632812 33.917969 L 16.152344 33.917969 L 16.152344 31.511719 L 11.632812 31.511719 C 9.304688 31.382812 7.105469 30.378906 5.488281 28.699219 C 3.871094 27.019531 2.949219 24.785156 2.910156 22.449219 C 2.871094 20.121094 3.722656 17.859375 5.285156 16.125 C 6.847656 14.390625 9.007812 13.316406 11.332031 13.113281 L 12.136719 13.113281 L 12.414062 12.355469 C 13.164062 10.414062 14.488281 8.746094 16.214844 7.582031 C 17.941406 6.417969 19.980469 5.808594 22.058594 5.84375 C 24.6875 5.785156 27.234375 6.761719 29.140625 8.566406 C 31.046875 10.375 32.164062 12.863281 32.246094 15.488281 C 32.261719 15.808594 32.261719 16.132812 32.246094 16.453125 L 32.152344 17.320312 L 32.933594 17.683594 C 34.449219 18.367188 35.683594 19.546875 36.429688 21.035156 C 37.175781 22.519531 37.382812 24.21875 37.023438 25.839844 C 36.667969 27.464844 35.757812 28.914062 34.457031 29.945312 C 33.152344 30.976562 31.535156 31.53125 29.871094 31.511719 L 23.386719 31.511719 L 23.386719 33.917969 L 29.871094 33.917969 C 32.015625 33.933594 34.105469 33.234375 35.804688 31.933594 C 37.507812 30.628906 38.726562 28.796875 39.269531 26.722656 C 39.816406 24.648438 39.648438 22.449219 38.804688 20.480469 C 37.960938 18.507812 36.484375 16.875 34.609375 15.835938 Z M 34.609375 15.835938 "/>
<path style=" stroke:none;fill-rule:nonzero;fill:rgb(21.176471%,22.745098%,29.019608%);fill-opacity:1;" d="M 24.929688 26.507812 C 25.167969 26.511719 25.40625 26.441406 25.609375 26.3125 C 25.808594 26.179688 25.964844 25.988281 26.058594 25.769531 C 26.152344 25.546875 26.179688 25.300781 26.128906 25.066406 C 26.082031 24.832031 25.964844 24.617188 25.796875 24.445312 L 19.769531 18.417969 L 13.742188 24.445312 C 13.542969 24.675781 13.441406 24.972656 13.453125 25.277344 C 13.464844 25.578125 13.589844 25.867188 13.804688 26.082031 C 14.019531 26.296875 14.308594 26.421875 14.613281 26.433594 C 14.914062 26.445312 15.210938 26.34375 15.441406 26.144531 L 18.566406 23.074219 L 18.566406 37.839844 C 18.566406 38.15625 18.691406 38.464844 18.917969 38.691406 C 19.144531 38.917969 19.449219 39.042969 19.769531 39.042969 C 20.089844 39.042969 20.398438 38.917969 20.621094 38.691406 C 20.847656 38.464844 20.976562 38.15625 20.976562 37.839844 L 20.976562 23.074219 L 24.074219 26.167969 C 24.304688 26.390625 24.609375 26.511719 24.929688 26.507812 Z M 24.929688 26.507812 "/>
</g>
</svg>
